<mxfile host="app.diagrams.net" modified="2023-12-11T12:41:08.503Z" agent="Mozilla/5.0 (Windows NT 10.0; Win64; x64) AppleWebKit/537.36 (KHTML, like Gecko) Chrome/119.0.0.0 Safari/537.36 Edg/119.0.0.0" etag="B68qe1-vrkep-78c_sG-" version="22.1.7" type="device">
  <diagram name="Strona-1" id="Y-0N-Z7IoRk9D4JmpuV3">
    <mxGraphModel dx="554" dy="333" grid="1" gridSize="10" guides="1" tooltips="1" connect="1" arrows="1" fold="1" page="1" pageScale="1" pageWidth="827" pageHeight="1169" math="0" shadow="0">
      <root>
        <mxCell id="0" />
        <mxCell id="1" parent="0" />
        <mxCell id="FYJ7fDdQ39dcMK6PnL5i-1" value="" style="rounded=0;whiteSpace=wrap;html=1;" parent="1" vertex="1">
          <mxGeometry x="80" y="320" width="270" height="70" as="geometry" />
        </mxCell>
        <mxCell id="FYJ7fDdQ39dcMK6PnL5i-3" value="Czujnik obecności obiektu&lt;br&gt;&lt;br&gt;S3" style="text;html=1;strokeColor=none;fillColor=none;align=center;verticalAlign=middle;whiteSpace=wrap;rounded=0;" parent="1" vertex="1">
          <mxGeometry x="30" y="160" width="130" height="80" as="geometry" />
        </mxCell>
        <mxCell id="FYJ7fDdQ39dcMK6PnL5i-5" value="" style="rounded=0;whiteSpace=wrap;html=1;" parent="1" vertex="1">
          <mxGeometry x="120" y="325" width="30" height="60" as="geometry" />
        </mxCell>
        <mxCell id="FYJ7fDdQ39dcMK6PnL5i-6" value="" style="rounded=0;whiteSpace=wrap;html=1;" parent="1" vertex="1">
          <mxGeometry x="80" y="350" width="40" height="10" as="geometry" />
        </mxCell>
        <mxCell id="FYJ7fDdQ39dcMK6PnL5i-8" value="" style="shape=flexArrow;endArrow=classic;startArrow=classic;html=1;rounded=0;endSize=6.223333333333334;endWidth=6;startWidth=6;startSize=7.1066666666666665;width=5.333333333333333;" parent="1" edge="1">
          <mxGeometry width="100" height="100" relative="1" as="geometry">
            <mxPoint x="190" y="354.83000000000004" as="sourcePoint" />
            <mxPoint x="280" y="354.83000000000004" as="targetPoint" />
          </mxGeometry>
        </mxCell>
        <mxCell id="FYJ7fDdQ39dcMK6PnL5i-9" value="Q1&lt;br&gt;&lt;br&gt;Wyjście wysuń" style="text;html=1;strokeColor=none;fillColor=none;align=center;verticalAlign=middle;whiteSpace=wrap;rounded=0;" parent="1" vertex="1">
          <mxGeometry x="50" y="390" width="90" height="80" as="geometry" />
        </mxCell>
        <mxCell id="FYJ7fDdQ39dcMK6PnL5i-10" value="Q2&lt;br&gt;&lt;br&gt;Wyjście wsuń" style="text;html=1;strokeColor=none;fillColor=none;align=center;verticalAlign=middle;whiteSpace=wrap;rounded=0;" parent="1" vertex="1">
          <mxGeometry x="290" y="390" width="90" height="80" as="geometry" />
        </mxCell>
        <mxCell id="FYJ7fDdQ39dcMK6PnL5i-11" value="&lt;h1&gt;Slider&lt;/h1&gt;&lt;p&gt;Moduł Slider, 2 stanowy z 2 czujnikami pozycji oraz 2 wyjściami starowania mechanizmem wysuwania&lt;/p&gt;" style="text;html=1;strokeColor=none;fillColor=none;spacing=5;spacingTop=-20;whiteSpace=wrap;overflow=hidden;rounded=0;" parent="1" vertex="1">
          <mxGeometry x="30" y="20" width="190" height="120" as="geometry" />
        </mxCell>
        <mxCell id="O2bvLNfYB32JrRY0d9dy-1" value="Czujnik pozycji&lt;br&gt;(wysunięty)&lt;br&gt;&lt;br&gt;S2" style="text;html=1;strokeColor=none;fillColor=none;align=center;verticalAlign=middle;whiteSpace=wrap;rounded=0;" vertex="1" parent="1">
          <mxGeometry x="270" y="240" width="130" height="80" as="geometry" />
        </mxCell>
        <mxCell id="O2bvLNfYB32JrRY0d9dy-2" value="Czujnik pozycji&lt;br&gt;(wsunięty)&lt;br&gt;&lt;br&gt;S1" style="text;html=1;strokeColor=none;fillColor=none;align=center;verticalAlign=middle;whiteSpace=wrap;rounded=0;" vertex="1" parent="1">
          <mxGeometry x="30" y="240" width="130" height="80" as="geometry" />
        </mxCell>
      </root>
    </mxGraphModel>
  </diagram>
</mxfile>
